# xmcd
#
# Track frame offsets: 
#        150
#        13258
#        20720
#        39448
#        65483
#        87920
#        112488
#        126830
#        137713
#        150638
#        167903
#        179990
#        191113
#        203775
#        214808
#        225755
#        238995
#        253688
#        268300
#
# Disc length: 3761 seconds
#
# Revision: 2
# Processed by: cddbd v1.5.2PL0 Copyright (c) Steve Scherf et al.
# Submitted via: ExactAudioCopy v1.3
#
DISCID=270eaf13
DTITLE=渡辺 宙明 - マジンガーZ  <SONG and BGM>
DYEAR=1974
DGENRE=Anime
TTITLE0=歌: 水木 一郎、ザ・チャープス - 二人になれば
TTITLE1=1) 空飛ぶマジンガ－Z (映画版主題歌)  2) メインタイトル - マジンガーZ 対 暗黒大将軍
TTITLE2=1) ボスの悪夢  2) 閃光 ! 謎のロボット  3) 予言者  4) 暗黒大将軍 - 預言者～ミケーネの影
TTITLE3=1) 戦闘獣軍団進撃  2) Zのテーマ (挿入歌)  3) 激闘，戦闘獣 vs マジンガ－Z - 決戦 ! 戦闘獣軍団
TTITLE4=1) 瀕死のシロー  2) 甲児の悲しみ  3) 傷だらけの出撃 - 明日なき死闘の始まり
TTITLE5=1) 獣魔将軍  2)マジンガ－Z 絶体絶命  3) わが友マジンガ－Z (挿入歌) - 蘇れ ! マジンガーZ
TTITLE6=1) 登場 ! グレートマジンガ－  2) ダブルマジンガーの戦闘  3) エンディング - グレートマジンガー出撃
TTITLE7=歌: 水木 一郎、コロムビアゆりかご会 - おれはグレートマジンガー
TTITLE8=歌: コロムビアゆりかご会 - ぼくらの星 剣鉄也
TTITLE9=歌: 堀江 美都子 - ビューナスＡの歌
TTITLE10=歌: 水木 一郎、コロムビアゆりかご会 - 勝てグレートマジンガー
TTITLE11=歌: 水木 一郎 - 鉄也のテーマ
TTITLE12=歌: サニー・シンガーズ - 悪の勇者たち
TTITLE13=歌: 水木 一郎、コロムビアゆりかご会 - 勇者はマジンガー
TTITLE14=歌: 河添 美智子、コロムビアゆりかご会 - シローの日曜日
TTITLE15=歌: 堀江 美都子 - ジュンの歌
TTITLE16=歌: 水木 一郎、コロムビアゆりかご会 - グレートマジンガー賛歌
TTITLE17=歌: 水木 一郎  - グレートマジンガーのバラード
TTITLE18=歌: 大竹 宏 - ボロット音頭
EXTD=
EXTT0=
EXTT1=
EXTT2=
EXTT3=
EXTT4=
EXTT5=
EXTT6=
EXTT7=
EXTT8=
EXTT9=
EXTT10=
EXTT11=
EXTT12=
EXTT13=
EXTT14=
EXTT15=
EXTT16=
EXTT17=
EXTT18=
PLAYORDER=
